<svg id="Layer_1" data-name="Layer 1" xmlns="http://www.w3.org/2000/svg" viewBox="0 0 150 121.32"><defs><style>.cls-1{fill:#f0f0f0;}</style></defs><path class="cls-1" d="M68.58,44.21H82.1V14.34c2.47,1.48,4.66,2.95,7,4.13,1.91,1,2.55,2.18,2.52,4.38-.14,10.77-.08,21.54,0,32.31a2.08,2.08,0,0,1-1.2,2.11c-2.7,1.52-5.35,3.13-8.21,4.82V52.74H68.66V82.17L66,80.64c-2-1.17-4-2.31-6-3.56a2.15,2.15,0,0,1-.87-1.52q-.07-17.22,0-34.44a1.75,1.75,0,0,1,.49-1.31c2.84-1.76,5.73-3.44,8.88-5.32Z" transform="translate(0 -14.34)"/><path class="cls-1" d="M68.58,14.38c0,4.13,0,8,0,11.95,0,.4-.56.92-1,1.18-4.47,2.73-9,5.44-13.46,8.09a2.12,2.12,0,0,0-1.18,2.13c0,11.05,0,22.1,0,33.15v1.78c-2-1.09-3.92-2.09-5.8-3.12-1.53-.83-3.65-1.34-4.4-2.63s-.28-3.48-.29-5.26q0-15.45,0-30.89a1.76,1.76,0,0,1,.88-1.85c8.19-4.68,16.34-9.43,24.5-14.16C68,14.66,68.15,14.59,68.58,14.38Z" transform="translate(0 -14.34)"/><path class="cls-1" d="M97.78,23.76c3.15,1.91,6.06,3.66,8.92,5.46a1.44,1.44,0,0,1,.42,1.08q0,17.92,0,35.85a1.67,1.67,0,0,1-.64,1.24Q94.56,74.63,82.6,81.81a1.9,1.9,0,0,1-.45.1c0-2.28,0-4.51,0-6.75,0-1.87-.51-4.08.3-5.53s3-2,4.54-3c3.19-1.93,6.36-3.89,9.59-5.74a2.21,2.21,0,0,0,1.23-2.25c0-11,0-22,0-33Z" transform="translate(0 -14.34)"/><path class="cls-1" d="M0,101.87H4.93V112.5h9.7V101.93h5v25.54H14.8V117.08H5V127.5H0Z" transform="translate(0 -14.34)"/><path class="cls-1" d="M133.8,108.92c1.53.42,3.39-1,4.09,1.1a41.11,41.11,0,0,1,6.32-1.38c3.18-.18,5.26,1.55,5.56,4.72a54.41,54.41,0,0,1,0,9.72c-.26,3.08-2,4.56-5.11,4.83-2,.17-3.95,0-6.17,0V135l-4.72.66Zm4.58,9.86V120c0,3.79.65,4.38,4.46,4.06l.39,0a1.76,1.76,0,0,0,1.71-1.82c.19-2.63.62-5.79.14-7.91a2.9,2.9,0,0,0-1.59-1.62,4,4,0,0,0-5.1,3.94C138.39,117.32,138.39,118.05,138.38,118.78Z" transform="translate(0 -14.34)"/><path class="cls-1" d="M56.2,101.54l4.7.68v7.94c1.84-.51,3.46-1.06,5.12-1.41,4.11-.85,6.31.86,6.37,5,.08,4.51,0,9,0,13.69H67.58V116c0-2.79-.61-3.26-3.34-2.63-3,.67-3.34,1.14-3.34,4.25v9.89H56.2Z" transform="translate(0 -14.34)"/><path class="cls-1" d="M101.93,118.21c0-.33,0-.66,0-1-.11-3,.22-6,3.35-7.46a10.87,10.87,0,0,1,10.64.31,6.37,6.37,0,0,1,2.61,4,29,29,0,0,1,.23,7.89c-.47,4.84-4.47,6.54-9.7,6C103.44,127.37,101.94,125.13,101.93,118.21Zm12.06.11h0c0-1,.07-2,0-3-.16-2-1.2-2.75-3.57-2.79-2.2,0-3.32.73-3.43,2.66s-.06,4,0,5.94a2.55,2.55,0,0,0,2.46,2.61c3.24.49,4.56-.6,4.6-3.87Z" transform="translate(0 -14.34)"/><path class="cls-1" d="M100.61,102.46c-.18,1.46-.34,2.68-.44,3.54-2.74,0-5.3-.14-7.84,0s-3.26,1.15-3.29,3.6c0,3.31-.05,6.63,0,10,0,2.57,1,3.63,3.64,3.69,2.43.06,4.86-.18,7.42-.29.16,1.19.32,2.36.52,3.77-4.35.71-8.6,1.65-12.86-.18a5.09,5.09,0,0,1-3.44-4.5c-.18-4.83-.23-9.67-.07-14.5.08-2.53,1.72-4.26,4.14-5.07C92.43,101.16,96.45,101.64,100.61,102.46Z" transform="translate(0 -14.34)"/><path class="cls-1" d="M36.7,127.77l-4.18-.64.12-.27a45.25,45.25,0,0,1-6.39.89c-2.73,0-4.24-2-4.39-5.12s1-4.95,3.79-5.34c2.08-.3,4.2-.29,6.3-.42.64-3.63-.09-4.57-3.62-4.5-1.71,0-3.41.26-5.26.41l-.62-3.4c3.73-1,7.29-1.47,10.9-.43a4.12,4.12,0,0,1,3.3,3.82C36.8,117.65,36.7,122.53,36.7,127.77Zm-4.26-7.15a29.7,29.7,0,0,0-4.33.06,1.82,1.82,0,0,0-1.33,1.14,1.92,1.92,0,0,0,.68,2.14c1,.61,3.82.69,4.82-.25A19.51,19.51,0,0,0,32.44,120.62Z" transform="translate(0 -14.34)"/><path class="cls-1" d="M40.15,123.65c2.29.17,4.33.43,6.37.4.65,0,1.8-.59,1.82-1.3.06-1.75-.6-1.83-1.27-2.17a28.32,28.32,0,0,0-4.17-1.24c-2.49-.8-3.16-1.92-3.16-5,0-2.88.92-4.52,3.16-5.12a18.09,18.09,0,0,1,9.91.27l-.5,3.45c-1.94-.12-3.77-.28-5.6-.34-1,0-2,0-2.2,1.43s.74,1.83,1.84,2.13c1.34.36,2.7.68,4,1.16,2.5.93,3.1,2.18,2.91,5.6-.16,2.63-1.19,4.45-3.49,4.64a63.44,63.44,0,0,1-9.23-.31c-.3,0-.77-.8-.79-1.23A11,11,0,0,1,40.15,123.65Z" transform="translate(0 -14.34)"/><path class="cls-1" d="M126.49,127.55h-4.81V109.12h3.95l.31,1.72,4.86-2.21c.15.57.23,1,.35,1.32.67,2,.33,3.53-2,4.17-2.15.58-2.89,2-2.7,4.3C126.67,121.37,126.49,124.36,126.49,127.55Z" transform="translate(0 -14.34)"/><path class="cls-1" d="M80.65,127.58H76.11V109.1h4.54Z" transform="translate(0 -14.34)"/><path class="cls-1" d="M76.06,101.86h4.59v4.25H76.06Z" transform="translate(0 -14.34)"/></svg>